<svg xmlns="http://www.w3.org/2000/svg" width="1200" height="680" viewBox="0 0 1200 680" role="img" aria-labelledby="title desc">
  <title id="title">深度语音专家功能地图</title>
  <desc id="desc">展示离线语音包、四语词典、维基百科深度链接、八大学科和本地笔记之间的关系。</desc>
  <defs>
    <linearGradient id="bg" x1="0" y1="0" x2="1" y2="1">
      <stop offset="0" stop-color="#f8f7f5"/>
      <stop offset="1" stop-color="#eeeae6"/>
    </linearGradient>
    <linearGradient id="core" x1="0" y1="0" x2="1" y2="1">
      <stop offset="0" stop-color="#3a3938"/>
      <stop offset="1" stop-color="#82614f"/>
    </linearGradient>
    <filter id="shadow" x="-30%" y="-30%" width="160%" height="160%">
      <feDropShadow dx="0" dy="14" stdDeviation="18" flood-color="#544941" flood-opacity=".12"/>
    </filter>
    <marker id="arrow" viewBox="0 0 10 10" refX="9" refY="5" markerWidth="6" markerHeight="6" orient="auto-start-reverse">
      <path d="M 0 0 L 10 5 L 0 10 z" fill="#b39a8b"/>
    </marker>
  </defs>
  <rect width="1200" height="680" rx="34" fill="url(#bg)"/>
  <text x="64" y="62" fill="#8a6a58" font-family="-apple-system,BlinkMacSystemFont,'Segoe UI',sans-serif" font-size="13" font-weight="700" letter-spacing="3">DEEP VOICE EXPERT · FEATURE MAP</text>
  <text x="64" y="103" fill="#343130" font-family="'Songti SC','STSong',serif" font-size="31" font-weight="600">从一个词，进入声音、语言与知识的深层网络</text>

  <g fill="none" stroke="#b39a8b" stroke-width="2" stroke-dasharray="6 8" marker-end="url(#arrow)" opacity=".75">
    <path d="M445 304 C355 285 340 238 302 218"/>
    <path d="M445 356 C345 390 332 452 300 477"/>
    <path d="M755 304 C845 285 860 238 898 218"/>
    <path d="M755 356 C855 390 868 452 900 477"/>
    <path d="M600 418 C600 477 600 495 600 525"/>
  </g>

  <g filter="url(#shadow)">
    <rect x="445" y="222" width="310" height="196" rx="32" fill="url(#core)"/>
    <circle cx="600" cy="274" r="28" fill="#fff" fill-opacity=".12" stroke="#fff" stroke-opacity=".2"/>
    <text x="600" y="282" text-anchor="middle" fill="#fff" font-family="'Songti SC','STSong',serif" font-size="17" font-weight="700">深语</text>
    <text x="600" y="329" text-anchor="middle" fill="#fff" font-family="'Songti SC','STSong',serif" font-size="31" font-weight="600">深度语音专家</text>
    <text x="600" y="356" text-anchor="middle" fill="#eee4df" font-family="-apple-system,BlinkMacSystemFont,'Segoe UI',sans-serif" font-size="12" letter-spacing="2">DICTIONARY × VOICE × KNOWLEDGE</text>
    <text x="600" y="388" text-anchor="middle" fill="#f2eae6" font-family="-apple-system,BlinkMacSystemFont,'Segoe UI',sans-serif" font-size="13">中文理解 · EN / FR / DE 校准</text>
  </g>

  <g font-family="-apple-system,BlinkMacSystemFont,'Segoe UI',sans-serif" filter="url(#shadow)">
    <g transform="translate(64 154)">
      <rect width="270" height="130" rx="22" fill="#fff" stroke="#e3ddd9"/>
      <rect x="20" y="20" width="42" height="42" rx="12" fill="#eee7e2"/>
      <text x="41" y="47" text-anchor="middle" fill="#8a6451" font-size="15" font-weight="800">W</text>
      <text x="78" y="36" fill="#363231" font-size="16" font-weight="700">四语维基百科</text>
      <text x="78" y="57" fill="#928b87" font-size="11">ZH · EN · FR · DE</text>
      <text x="20" y="91" fill="#625c58" font-size="12">每个已标注术语和词条均可</text>
      <text x="20" y="111" fill="#625c58" font-size="12">直接进入对应语言的知识页面</text>
    </g>
    <g transform="translate(64 414)">
      <rect width="270" height="130" rx="22" fill="#fff" stroke="#e3ddd9"/>
      <rect x="20" y="20" width="42" height="42" rx="12" fill="#e7efe9"/>
      <path d="M31 42h4l7-7v18l-7-7h-4z M48 37q7 6 0 12" fill="none" stroke="#557b62" stroke-width="2" stroke-linecap="round"/>
      <text x="78" y="36" fill="#363231" font-size="16" font-weight="700">离线 ONNX 语音包</text>
      <text x="78" y="57" fill="#928b87" font-size="11">下载一次 · 本机合成</text>
      <text x="20" y="91" fill="#625c58" font-size="12">中、英、法、德按需下载</text>
      <text x="20" y="111" fill="#625c58" font-size="12">无需账户、API Key 或云端请求</text>
    </g>
    <g transform="translate(866 154)">
      <rect width="270" height="130" rx="22" fill="#fff" stroke="#e3ddd9"/>
      <rect x="20" y="20" width="42" height="42" rx="12" fill="#e8ebf2"/>
      <text x="41" y="47" text-anchor="middle" fill="#536985" font-size="14" font-weight="800">Aa</text>
      <text x="78" y="36" fill="#363231" font-size="16" font-weight="700">词典式深度拆解</text>
      <text x="78" y="57" fill="#928b87" font-size="11">词源 · 语法 · 语义 · 例句</text>
      <text x="20" y="91" fill="#625c58" font-size="12">从术语胶囊进入语言学报告</text>
      <text x="20" y="111" fill="#625c58" font-size="12">逐词发音与多语精确对照</text>
    </g>
    <g transform="translate(866 414)">
      <rect width="270" height="130" rx="22" fill="#fff" stroke="#e3ddd9"/>
      <rect x="20" y="20" width="42" height="42" rx="12" fill="#f1e9df"/>
      <text x="41" y="47" text-anchor="middle" fill="#9a6d38" font-size="14" font-weight="800">08</text>
      <text x="78" y="36" fill="#363231" font-size="16" font-weight="700">八大学科知识领域</text>
      <text x="78" y="57" fill="#928b87" font-size="11">CLIL 阶段化课程</text>
      <text x="20" y="91" fill="#625c58" font-size="12">文学、经济、心理、哲学、科技</text>
      <text x="20" y="111" fill="#625c58" font-size="12">以及商务、生活与艺术美学</text>
    </g>
    <g transform="translate(455 525)">
      <rect width="290" height="92" rx="20" fill="#fff" stroke="#e3ddd9"/>
      <text x="24" y="34" fill="#363231" font-size="15" font-weight="700">本地学习记忆</text>
      <text x="24" y="58" fill="#625c58" font-size="12">课程树 · 多语笔记 · 浏览器持久化</text>
      <text x="257" y="53" text-anchor="middle" fill="#8a6451" font-size="22">▤</text>
    </g>
  </g>
  <text x="600" y="654" text-anchor="middle" fill="#9b948f" font-family="-apple-system,BlinkMacSystemFont,'Segoe UI',sans-serif" font-size="11">OPEN SOURCE · LOCAL FIRST · MULTILINGUAL KNOWLEDGE LEARNING</text>
</svg>
